
<svg width="124px" height="70px" viewBox="420 219 124 70" version="1.1" xmlns="http://www.w3.org/2000/svg" xmlns:xlink="http://www.w3.org/1999/xlink">
    <g id="eye" stroke="none" stroke-width="1" fill="none" fill-rule="evenodd" transform="translate(420.000000, 219.000000)">
        <path d="M122.322441,31.7416207 C121.02784,30.2095862 119.603102,28.7654138 118.176675,27.3502069 C110.475463,19.7035517 101.626204,12.8865172 91.9447009,7.94065517 C85.7594907,4.78341379 79.1392057,2.23082759 72.2791708,1.008 C68.7896384,0.383793103 65.3698821,0.0637241379 61.7828079,0.0574482759 C58.2947241,0.0634827586 54.8032602,0.384034483 51.3137277,1.008 C44.4539342,2.23058621 37.8474113,4.78341379 31.6622012,7.94065517 C21.979974,12.8862759 13.137958,19.7037931 5.43650465,27.3502069 C4.00983565,28.7651724 2.5889612,30.2098276 1.29460132,31.7416207 C-0.430970414,33.7894828 -0.430970414,36.2107586 1.29460132,38.2588621 C5.24069681,42.9302759 9.93187616,47.0873103 14.7046622,50.888069 C24.9827634,59.0744483 36.7360629,65.9206897 49.7117733,68.6803793 C53.7247476,69.531 57.7514841,69.9461724 61.7832908,69.9423103 C65.8645927,69.9466552 69.8686338,69.5314828 73.8811252,68.6803793 C86.857077,65.9206897 98.636935,59.0744483 108.915036,50.888069 C113.687822,47.0875517 118.378036,42.9300345 122.324131,38.2588621 C124.049462,36.2112414 124.047771,33.7899655 122.322441,31.7416207 L122.322441,31.7416207 Z M61.7825665,58.7884138 C48.6641651,58.7633103 38.0374246,48.125 38.0374246,34.9995172 C38.0374246,21.8803103 48.6641651,11.2386207 61.7825665,11.2132759 C75.0156518,11.2383793 85.5274669,21.8803103 85.5274669,34.9995172 C85.5277083,48.1247586 75.0156518,58.7625862 61.7825665,58.7884138 L61.7825665,58.7884138 Z" id="Shape" fill="#FFF790"></path>
        <path d="M61.7748404,25.7988621 C56.6901138,25.7988621 52.5745274,29.9165517 52.5745274,34.9990345 C52.5745274,40.0844138 56.6903553,44.2011379 61.7748404,44.2011379 C66.8590841,44.2011379 70.9794992,40.0844138 70.9794992,34.9990345 C70.9794992,29.9165517 66.8588426,25.7988621 61.7748404,25.7988621 L61.7748404,25.7988621 Z" id="Shape" fill="#FFF790"></path>
    </g>
</svg>
