
<svg width="109px" height="111px" viewBox="564 513 109 111" version="1.1" xmlns="http://www.w3.org/2000/svg" xmlns:xlink="http://www.w3.org/1999/xlink">
    <g id="github" stroke="none" stroke-width="1" fill="none" fill-rule="evenodd" transform="translate(564.000000, 513.000000)">
        <g id="Shape" fill="#99C2FF">
            <path d="M54.3604651,0 C24.3401106,0 0,25.2490188 0,56.3903932 C0,81.3089997 15.5742733,102.44163 37.1770372,109.896506 C39.8944233,110.412831 40.8865018,108.671226 40.8865018,107.18437 C40.8865018,105.842015 40.8367068,101.395324 40.8101636,96.6869462 C25.6938136,100.09427 22.4986498,90.0373954 22.4986498,90.0373954 C20.0235499,83.5255166 16.4633641,81.7908512 16.4633641,81.7908512 C11.5230384,78.293986 16.8381541,78.3628218 16.8381541,78.3628218 C22.2960722,78.7551316 25.1695323,84.1725743 25.1695323,84.1725743 C30.0203545,92.7908327 37.8969948,90.298972 40.9892771,88.8534175 C41.4834053,85.2188805 42.8901947,82.7270198 44.4398926,81.3227668 C32.3727187,79.8979182 19.6784884,75.0586972 19.6784884,53.4510441 C19.6784884,47.2901733 21.7986527,42.2652606 25.2691225,38.3174925 C24.7150067,36.8857052 22.8437114,31.148203 25.8065691,23.3870345 C25.8065691,23.3870345 30.3654161,21.872644 40.756971,29.1692526 C45.0900948,27.9130244 49.7385515,27.2935011 54.360359,27.2727951 C58.978875,27.2935011 63.630517,27.9198529 67.9704358,29.1760811 C78.3422425,21.872644 82.9076723,23.3938631 82.9076723,23.3938631 C85.8805102,31.1619701 84.0092148,36.8925337 83.4518077,38.3174925 C86.9355492,42.2652606 89.0391506,47.2902834 89.0391506,53.4510441 C89.0391506,75.113766 76.3249597,79.8840409 64.2146797,81.2814653 C66.1722934,83.0298979 67.9041839,86.4579271 67.9041839,91.7169922 C67.9041839,99.2545814 67.831137,105.332739 67.831137,107.191309 C67.831137,108.691932 68.819818,110.447193 71.5737276,109.896506 C93.1600348,102.427863 108.72093,81.2952325 108.72093,56.3903932 C108.72093,25.2490188 84.3808197,0 54.3604651,0 L54.3604651,0 L54.3604651,0 Z"></path>
        </g>
    </g>
</svg>
