
<svg width="85px" height="86px" viewBox="272 203 85 86" version="1.1" xmlns="http://www.w3.org/2000/svg" xmlns:xlink="http://www.w3.org/1999/xlink">
    <g id="github" stroke="none" stroke-width="1" fill="none" fill-rule="evenodd" transform="translate(272.000000, 203.000000)">
        <path d="M42.5,0 C19.029541,0 0,19.740142 0,44.0870347 C0,63.5688543 12.17625,80.0907289 29.0656836,85.9190865 C31.1901855,86.3227584 31.9658105,84.9611407 31.9658105,83.7986896 C31.9658105,82.7492115 31.9268799,79.2727077 31.9061279,75.5916125 C20.0878906,78.25552 17.5898535,70.3928728 17.5898535,70.3928728 C15.6547754,65.3017675 12.8713574,63.9455746 12.8713574,63.9455746 C9.0089209,61.2116618 13.164375,61.2654789 13.164375,61.2654789 C17.4314746,61.5721938 19.677998,65.807649 19.677998,65.807649 C23.470459,72.5455601 29.6285596,70.5973781 32.0461621,69.4672173 C32.4324805,66.6256702 33.532334,64.6774882 34.743916,63.5796177 C25.3095801,62.4656451 15.385,58.6822542 15.385,41.7889981 C15.385,36.9723173 17.042583,33.0437492 19.7558594,29.9573123 C19.3226416,28.837915 17.8596289,24.3522314 20.1760449,18.2844088 C20.1760449,18.2844088 23.7402344,17.1004308 31.864541,22.805052 C35.2522559,21.82291 38.8865039,21.3385554 42.499917,21.3223671 C46.1107568,21.3385554 49.7474951,21.8282486 53.1405225,22.8103907 C61.2493896,17.1004308 64.8187256,18.2897475 64.8187256,18.2897475 C67.1429443,24.3629948 65.6799316,28.8432536 65.2441406,29.9573123 C67.967793,33.0437492 69.6124268,36.9724034 69.6124268,41.7889981 C69.6124268,58.725308 59.6722412,62.4547956 50.2042041,63.5473274 C51.7347021,64.9142838 53.0887256,67.5943794 53.0887256,71.7060121 C53.0887256,77.5990364 53.0316162,82.3510505 53.0316162,83.8041144 C53.0316162,84.9773289 53.804585,86.349624 55.9576416,85.9190865 C72.834209,80.0799654 85,63.5580909 85,44.0870347 C85,19.740142 65.970459,0 42.5,0 L42.5,0 Z" id="Shape" fill="#FFF790"></path>
    </g>
</svg>
