
<svg width="85px" height="85px" viewBox="607 203 85 85" version="1.1" xmlns="http://www.w3.org/2000/svg" xmlns:xlink="http://www.w3.org/1999/xlink">
    <g id="InVision" stroke="none" stroke-width="1" fill="none" fill-rule="evenodd" transform="translate(607.000000, 203.000000)">
        <g id="Group">
            <path d="M77.2946212,0 L7.70537879,0 C3.44990529,0 0,3.44990529 0,7.70537879 L0,77.2946212 C0,81.5500947 3.44990529,85 7.70537879,85 L77.2946212,85 C81.5500947,85 85,81.5500947 85,77.2946212 L85,7.70537879 C85,3.44990529 81.5500947,0 77.2946212,0" id="Shape" fill="#FFF790"></path>
            <path d="M28.4070644,26.743447 C31.2326704,26.743447 33.5994697,24.5286174 33.5994697,21.6260606 C33.5994697,18.7254356 31.2326704,16.51125 28.4070644,16.51125 C25.5814583,16.51125 23.2149811,18.7254356 23.2149811,21.6260606 C23.2149811,24.5286174 25.5814583,26.743447 28.4070644,26.743447" id="Shape" fill="#99C2FF"></path>
            <path d="M17.6403977,54.1427462 C17.3354924,55.4409279 17.1822349,56.8427841 17.1822349,57.9864206 C17.1822349,62.4923865 19.6256629,65.4838068 24.8183901,65.4838068 C29.1250568,65.4838068 32.6161742,62.9260794 35.1297918,58.7968182 L33.5949621,64.9570644 L42.1464774,64.9570644 L47.0339774,45.3542615 C48.2555303,40.3907765 50.6226515,37.8146971 54.2119697,37.8146971 C57.0372538,37.8146971 58.7935985,39.5716856 58.7935985,42.4723106 C58.7935985,43.3129735 58.7169697,44.2283332 58.4117423,45.2212879 L55.8913635,54.2316097 C55.5095077,55.5297918 55.3575379,56.8289394 55.3575379,58.0495265 C55.3575379,62.3272159 57.8766288,65.4561173 63.1456629,65.4561173 C67.6509847,65.4561173 71.2396591,62.5558144 73.2252462,55.6067423 L69.8658144,54.3095265 C68.1854544,58.9652082 66.7346591,59.8068371 65.5894129,59.8068371 C64.4438447,59.8068371 63.8327462,59.0437688 63.8327462,57.5173106 C63.8327462,56.8302274 63.9860038,56.0674812 64.2146024,55.1492235 L66.6586741,46.3707197 C67.2691288,44.3094697 67.4986932,42.4816476 67.4986932,40.8022538 C67.4986932,34.2353597 63.5275188,30.8083144 58.7169697,30.8083144 C54.2119697,30.8083144 49.6300188,34.8718938 47.3398485,39.1486173 L49.0192423,31.4722159 L35.9620832,31.4722159 L34.1291097,38.2335794 L40.2381629,38.2335794 L36.4765909,53.2946779 C33.5221971,59.8615721 28.0957197,59.9681438 27.4147538,59.8155303 C26.296553,59.5634279 25.5814583,59.13875 25.5814583,57.6857009 C25.5814583,56.8472918 25.734072,55.643125 26.115928,54.1910418 L31.843447,31.4722159 L17.3354924,31.4722159 L15.5025189,38.2335794 L21.5346212,38.2335794 L17.6403977,54.1427462" id="Shape" fill="#99C2FF"></path>
        </g>
    </g>
</svg>
