
<svg width="110px" height="110px" viewBox="509 753 110 110" version="1.1" xmlns="http://www.w3.org/2000/svg" xmlns:xlink="http://www.w3.org/1999/xlink">
    <g id="linkedin" stroke="none" stroke-width="1" fill="none" fill-rule="evenodd" transform="translate(509.000000, 753.000000)">
        <g id="Capa_1" fill="#99C2FF">
            <path d="M101.668329,0 L8.11141531,0 C3.63153132,0 0.000510440835,3.52025522 0.000510440835,7.86512761 L0.000510440835,101.90645 C0.000510440835,106.251578 3.63280742,109.774896 8.11141531,109.774896 L101.668329,109.774896 C106.147193,109.774896 109.77413,106.249281 109.77413,101.90645 L109.77413,7.86512761 C109.77413,3.52153132 106.147193,0 101.668329,0 L101.668329,0 Z M33.2807425,91.8890487 L16.6947332,91.8890487 L16.6947332,42.3270302 L33.2807425,42.3270302 L33.2807425,91.8890487 L33.2807425,91.8890487 Z M24.9893968,35.5560325 L24.8778654,35.5560325 C19.3158469,35.5560325 15.710348,31.7522274 15.710348,26.9900696 C15.710348,22.131949 19.4217633,18.4312529 25.0940371,18.4312529 C30.7668213,18.4312529 34.2561949,22.1309281 34.3664501,26.9900696 C34.3664501,31.7532483 30.7680974,35.5560325 24.9893968,35.5560325 L24.9893968,35.5560325 Z M93.0684223,91.8890487 L76.4877726,91.8890487 L76.4877726,65.3716473 C76.4877726,58.7086079 74.0853828,54.1621114 68.0892343,54.1621114 C63.5021578,54.1621114 60.7792111,57.2293503 59.5835035,60.1906729 C59.1404408,61.2483063 59.0306961,62.7275638 59.0306961,64.2047796 L59.0306961,91.8880278 L42.453109,91.8880278 C42.453109,91.8880278 42.6700464,46.974594 42.453109,42.3262645 L59.0332483,42.3262645 L59.0332483,49.3527378 C61.2342691,45.9764269 65.167471,41.1601624 73.9723202,41.1601624 C84.8855452,41.1601624 93.0684223,48.2397216 93.0684223,63.47 L93.0684223,91.8890487 L93.0684223,91.8890487 Z M58.9260557,49.5102088 C58.9543852,49.4637587 58.9939443,49.4078654 59.0332483,49.3535035 L59.0332483,49.5102088 L58.9260557,49.5102088 L58.9260557,49.5102088 Z" id="LinkedIn__x28_alt_x29_"></path>
        </g>
    </g>
</svg>
