
<svg width="155px" height="110px" viewBox="327 513 155 110" version="1.1" xmlns="http://www.w3.org/2000/svg" xmlns:xlink="http://www.w3.org/1999/xlink">
    <g id="mail" stroke="none" stroke-width="1" fill="none" fill-rule="evenodd" transform="translate(327.000000, 513.000000)">
        <path d="M0,0 L0,110 L154.916667,110 L154.916667,0 L0,0 L0,0 Z M132.785714,11 L77.4583333,56.375 L22.1309524,11 L132.785714,11 L132.785714,11 Z M11.0654762,22 L54.6411485,54.9355469 L11.0654762,88 L11.0654762,22 L11.0654762,22 Z M22.1309524,99 L66.047061,63.5507812 L77.4583333,72.1875 L88.8479934,63.5722656 L132.785714,99 L22.1309524,99 L22.1309524,99 Z M143.85119,88 L100.216041,54.9893437 L143.85119,22 L143.85119,88 L143.85119,88 Z" id="Shape" fill="#99C2FF"></path>
    </g>
</svg>
