
<svg width="136px" height="110px" viewBox="357 727 136 110" version="1.1" xmlns="http://www.w3.org/2000/svg" xmlns:xlink="http://www.w3.org/1999/xlink">
    <g id="twitter" stroke="none" stroke-width="1" fill="none" fill-rule="evenodd" transform="translate(357.000000, 727.000000)">
        <path d="M135.700935,13.0096154 C130.727879,15.2307692 125.358037,16.7115385 119.750123,17.3725962 C125.490299,13.9350962 129.881401,8.48798077 131.971143,2.00961538 C126.601301,5.18269231 120.649505,7.50961538 114.327376,8.75240385 C109.248511,3.35817308 102.026999,0 94.0383669,0 C78.6959611,0 66.2633219,12.4278846 66.2633219,27.7644231 C66.2633219,29.9326923 66.5013937,32.0480769 66.9775373,34.0841346 C43.8845712,32.9206731 23.4103951,21.8677885 9.70803957,5.05048077 C7.32732142,9.14903846 5.95179538,13.9350962 5.95179538,19.0120192 C5.95179538,28.6370192 10.8454938,37.1514423 18.3050773,42.1225962 C13.7552604,41.9903846 9.46996775,40.7211538 5.71372356,38.6586538 L5.71372356,39.0024038 C5.71372356,52.4615385 15.289501,63.6995192 28.0131169,66.2379808 C25.6853036,66.8725962 23.2252282,67.2163462 20.6857955,67.2163462 C18.8870307,67.2163462 17.1676231,67.03125 15.4482156,66.7139423 C18.9928404,77.7403846 29.2563808,85.7788462 41.3980434,86.0168269 C31.8751708,93.4735577 19.9186752,97.9158654 6.87763021,97.9158654 C4.62917418,97.9158654 2.433623,97.7836538 0.238071815,97.5192308 C12.5649013,105.425481 27.1666393,110 42.8529267,110 C93.9590097,110 121.919222,67.6658654 121.919222,30.9639423 C121.919222,29.7475962 121.892769,28.5576923 121.839864,27.3677885 C127.262611,23.4807692 131.971143,18.5889423 135.700935,13.0096154 L135.700935,13.0096154 Z" id="Shape" fill="#99C2FF"></path>
    </g>
</svg>
