
<svg width="238px" height="105px" viewBox="601 25 238 105" version="1.1" xmlns="http://www.w3.org/2000/svg" xmlns:xlink="http://www.w3.org/1999/xlink">
    <g id="Logo" stroke="none" stroke-width="1" fill="none" fill-rule="evenodd" transform="translate(602.000000, 20.000000)">
        <g id="Genius-bee" stroke="#3F3B30">
            <g>
                <g>
                    <g id="Brain" transform="translate(0.000000, 45.050360)">
                        <path d="M16.3417373,42.1274133 C16.0992068,42.1383542 15.8552315,42.1438849 15.6099346,42.1438849 C6.98880579,42.1438849 0,35.3122011 0,26.8848921 C0,18.4575831 6.98880579,11.6258993 15.6099346,11.6258993 C15.6495625,11.6258993 15.6891558,11.6260436 15.7287142,11.6263318 C16.594525,5.06120119 22.0883347,0 28.7364706,0 C31.9399896,0 34.8754787,1.17519098 37.1542766,3.12755804 C39.814134,1.16913355 43.1753123,0 46.8298039,0 C54.4764553,0 60.8389429,5.11861853 62.1795948,11.8761968 C70.0112894,13.0853792 75.9210458,18.5320694 75.9210458,25.0683453 C75.9210458,27.9444693 74.7767876,30.6096256 72.8280271,32.7956163 C74.3268534,34.2965366 75.2115033,36.1464401 75.2115033,38.147482 C75.2115033,43.1637374 69.6522259,47.2302158 62.7945098,47.2302158 C60.7416447,47.2302158 58.805134,46.8658142 57.0992758,46.220617 C53.1842535,50.7452782 46.0777141,53.7697842 37.9605229,53.7697842 C27.5843918,53.7697842 18.8596933,48.8276583 16.3417373,42.1274133 Z" id="Combined-Shape" fill="#FFE067"></path>
                        <path d="M17.8977822,11.5346626 C17.8977822,11.5346626 16.1956106,14.6005918 16.1956106,16.5152122 C16.1956106,18.4298325 17.8977822,22.3978567 17.8977822,22.3978567" id="Path-1" transform="translate(17.046696, 16.966260) rotate(-23.000000) translate(-17.046696, -16.966260) "></path>
                        <path d="M39.1840568,2.81523815 C39.1840568,2.81523815 37.4818851,5.47094981 37.4818851,7.12939631 C37.4818851,8.78784282 39.1840567,12.2249502 39.1840567,12.2249502" id="Path-1-Copy" transform="translate(38.332971, 7.520094) scale(-1, 1) rotate(-356.000000) translate(-38.332971, -7.520094) "></path>
                        <path d="M60.637235,10.3776934 C60.637235,10.3776934 59.9816795,11.5978852 59.9816795,12.3598742 C59.9816795,13.1218631 60.637235,14.7010746 60.637235,14.7010746" id="Path-1-Copy-2" transform="translate(60.309457, 12.539384) rotate(-289.000000) translate(-60.309457, -12.539384) "></path>
                        <path d="M69.4866781,25.8719194 C69.4866781,25.8719194 67.783776,28.5276311 67.783776,30.1860776 C67.783776,31.8445241 69.486678,35.2816315 69.486678,35.2816315" id="Path-1-Copy-3" transform="translate(68.635227, 30.576775) rotate(-253.000000) translate(-68.635227, -30.576775) "></path>
                        <path d="M15.7527051,42.1303675 C15.7527051,42.1303675 17.3642809,37.2883086 18.8416993,35.7802128 C20.3152168,34.2760988 24.6055129,33.0937381 24.6055129,33.0937381 C24.6055129,33.0937381 25.3159925,29.9464781 25.2461966,29.1230943 C25.1764007,28.2997104 24.1737885,28.0006745 24.1737885,28.0006745" id="Path-9" transform="translate(20.501863, 35.065521) rotate(-4.000000) translate(-20.501863, -35.065521) "></path>
                        <path d="M24.6314865,33.012504 C24.6314865,33.012504 29.3914427,31.1085154 29.6825454,31.0084911 C29.973648,30.9084668 30.5258705,30.9871642 30.5258705,30.9871642" id="Path-10" transform="translate(27.578679, 31.985124) rotate(-354.000000) translate(-27.578679, -31.985124) "></path>
                        <path d="M35.9863574,46.6046632 C35.9863574,46.6046632 36.0288873,43.215695 38.1115407,41.7438678 C40.1941941,40.2720407 44.608884,40.5110574 44.608884,40.5110574" id="Path-9" fill="#FFE067"></path>
                        <path d="M38.6387485,41.5319515 C38.6387485,41.5319515 39.2014123,38.5331594 39.2786684,37.5829161 C39.3559245,36.6326728 39.1217735,35.5907868 39.1217735,35.5907868" id="Path-10"></path>
                        <path d="M69.1316607,29.5231653 C69.1316607,29.5231653 68.2394792,27.3758866 68.2729039,25.7796946 C68.3063287,24.1835026 69.2636036,23.2222626 69.2636036,23.2222626" id="Path-11"></path>
                        <path d="M57.2821711,46.0231925 C57.2821711,46.0231925 59.9289815,42.8519609 61.5105471,41.9199836 C63.0921127,40.9880063 64.0851011,42.1225287 65.5427003,41.1554679 C67.0002996,40.1884071 67.2799489,38.0922083 67.2799489,38.0922083" id="Path-10"></path>
                        <path d="M64.8908797,41.5897502 C64.8908797,41.5897502 66.5060827,41.4598626 67.6374352,41.5991781 C68.7687878,41.7384935 69.7699487,42.1905618 69.7699487,42.1905618" id="Path-11"></path>
                        <path d="M45.754328,18.037319 C45.754328,18.037319 50.7516527,16.0260375 55.888113,16.9580607 C61.0245733,17.8900839 62.3811279,21.0542923 62.3811279,21.0542923" id="Path-12"></path>
                        <path d="M59.4767571,18.0703179 C59.4767571,18.0703179 60.4673314,17.1593969 61.4798205,16.9371937 C62.4923096,16.7149906 64.8367404,16.894004 64.8367404,16.894004" id="Path-13"></path>
                        <path d="M30.6948435,25.4840766 C30.6948435,25.4840766 34.9437484,23.7175524 41.7616854,25.3631706 C48.5796225,27.0087888 54.1201378,30.6437545 50.9609314,30.6782691" id="Path-14"></path>
                        <path d="M36.2770734,24.5871161 C36.2770734,24.5871161 32.3651891,21.4937892 31.4814735,20.1511899 C30.5977579,18.8085907 30.7853533,16.2437315 30.7853533,16.2437315" id="Path-15"></path>
                    </g>
                    <g id="Wing2" transform="translate(53.991304, 28.799087) rotate(-349.000000) translate(-53.991304, -28.799087) translate(29.491304, 4.299087)">
                        <path d="M28.6206551,50.4443299 C33.0054837,50.4443299 32.5025388,38.7963089 32.5025388,24.4277469 C32.5025388,10.0591849 33.0054837,-1.58883604 28.6206551,-1.58883604 C24.2358264,-1.58883604 16.4582766,10.0591853 16.4582766,24.4277473 C16.4582766,38.7963093 24.2358264,50.4443299 28.6206551,50.4443299 Z" id="Oval-7-Copy-2" fill="#F3F3EF" transform="translate(24.489164, 24.427747) rotate(-316.000000) translate(-24.489164, -24.427747) "></path>
                        <path d="M9.1667993,38.7799482 C9.1667993,38.7799482 11.8507221,35.3402769 17.8055209,28.1972432 C23.7603198,21.0542095 25.4498311,17.2746693 29.8348023,13.9878023 C34.2197736,10.7009353 41.2565136,10.6189538 41.2565136,10.6189538" id="Path-16-Copy" transform="translate(25.211656, 24.699451) rotate(-7.000000) translate(-25.211656, -24.699451) "></path>
                        <path d="M22.314074,20.6463175 C22.314074,20.6463175 31.4915703,16.7767753 33.6425795,16.0624511 C35.7935887,15.3481269 40.0034821,15.7082443 40.0034821,15.7082443" id="Path-17-Copy" transform="translate(31.158778, 18.131894) rotate(-7.000000) translate(-31.158778, -18.131894) "></path>
                    </g>
                    <g id="Wing1" transform="translate(59.299157, 35.541893) rotate(-347.000000) translate(-59.299157, -35.541893) translate(32.299157, 14.541893)">
                        <path d="M30.996332,46.7777568 C35.3811607,46.7777568 34.8782158,35.1297359 34.8782158,20.7611739 C34.8782158,6.39261185 35.3811607,-5.2554091 30.996332,-5.2554091 C26.6115034,-5.2554091 18.8339535,6.39261221 18.8339535,20.7611742 C18.8339535,35.1297362 26.6115034,46.7777568 30.996332,46.7777568 Z" id="Oval-7-Copy" fill="#F4F4F0" transform="translate(26.864841, 20.761174) rotate(-302.000000) translate(-26.864841, -20.761174) "></path>
                        <path d="M8.45725682,38.7799482 C8.45725682,38.7799482 11.1411796,35.3402769 17.0959784,28.1972432 C23.0507773,21.0542095 24.7402886,17.2746693 29.1252598,13.9878023 C33.5102311,10.7009353 40.5469711,10.6189538 40.5469711,10.6189538" id="Path-16"></path>
                        <path d="M22.3295815,21.5068363 C22.3295815,21.5068363 31.9501057,17.4223726 34.1011149,16.7080484 C36.2521242,15.9937242 40.4620175,16.3538416 40.4620175,16.3538416" id="Path-17"></path>
                    </g>
                    <path d="M59.0997465,96.1265331 C59.231084,94.243557 59.809289,91.0402022 59.809289,91.0402022 C59.809289,91.0402022 61.0023529,95.2935191 61.1450695,97.3396371 C61.2388671,98.6844063 60.5188315,101.212864 60.5188315,101.212864 L59.0997465,101.212864 C59.0997465,101.212864 58.9945698,97.6344443 59.0997465,96.1265331 Z" id="Stinger" fill="#3F3B30" transform="translate(60.103250, 96.126533) rotate(-225.000000) translate(-60.103250, -96.126533) "></path>
                </g>
            </g>
        </g>
        <text id="genius" font-family="ModernSans, Modern Sans" font-size="47.2" font-weight="normal" fill="#3F3B30">
            <tspan x="90.4666667" y="85.974026">genius</tspan>
        </text>
    </g>
</svg>
